# xmcd
#
# Track frame offsets:
#	150
#	17054
#	33658
#	50284
#	64878
#	80686
#	102795
#	120987
#	135448
#	147073
#	167787
#	181568
#	199092
#	216960
#	234841
#	254370
#	271771
#	290171
#
# Disc length: 4146 seconds
#
# Revision: 0
# Processed by: cddbd v1.5.2PL0 Copyright (c) Steve Scherf et al.
# Submitted via: audiograbber 1.83.01
#
DISCID=f9103012
DTITLE=Lea Penanen - Me Leijonat cd 5/5 
DYEAR=2008
DGENRE=Speech
TTITLE0=Luku32. Parturi Parrapas
TTITLE1=Luku32. Parturi Parrapas -osa2
TTITLE2=Luku33. Köysirata
TTITLE3=Luku33. Köysirata -osa2
TTITLE4=Luku34. Kuningattaren aarre 
TTITLE5=Luku34. Kuningattaren aarre  -osa2
TTITLE6=Luku35. Vaarallinen vieras 
TTITLE7=Luku35. Vaarallinen vieras  -osa2
TTITLE8=Luku36. Kilpailut 
TTITLE9=Luku36. Kilpailut  -osa2
TTITLE10=Luku37. Tätikirahvin kaulahuivi
TTITLE11=Luku37. Tätikirahvin kaulahuivi-osa2
TTITLE12=Luku38. Lordi HighHigh
TTITLE13=Luku38. Lordi HighHigh -osa2
TTITLE14=LUku39. Parantava tassu
TTITLE15=LUku39. Parantava tassu -osa2
TTITLE16=Luku40. Me lähdemme kouluun
TTITLE17=Luku40. Me lähdemme kouluun -osa2
EXTD=
EXTT0=
EXTT1=
EXTT2=
EXTT3=
EXTT4=
EXTT5=
EXTT6=
EXTT7=
EXTT8=
EXTT9=
EXTT10=
EXTT11=
EXTT12=
EXTT13=
EXTT14=
EXTT15=
EXTT16=
EXTT17=
PLAYORDER=
